<svg width="600" height="347" viewBox="0 0 600 347" xmlns="http://www.w3.org/2000/svg" style="filter: blur(6px)" preserveAspectRatio="none"> <style type="text/css"> polygon { fill: #F7F2F2; transform: scale(109%); } </style> <polygon points="150.0,225.1666 170.0,225.1666 180.0,242.4871 170.0,259.8076 150.0,259.8076 140.0,242.4871" fill-opacity="0.78" /> <polygon points="540.0,277.1281 560.0,277.1281 570.0,294.4486 560.0,311.7691 540.0,311.7691 530.0,294.4486" fill-opacity="0.14" /> <polygon points="450.0,225.1666 470.0,225.1666 480.0,242.4871 470.0,259.8076 450.0,259.8076 440.0,242.4871" fill-opacity="0.4" /> <polygon points="300.0,242.4871 320.0,242.4871 330.0,259.8076 320.0,277.1281 300.0,277.1281 290.0,259.8076" fill-opacity="0.93" /> <polygon points="270.0,17.3205 290.0,17.3205 300.0,34.641 290.0,51.9615 270.0,51.9615 260.0,34.641" fill-opacity="0.14" /> <polygon points="150.0,17.3205 170.0,17.3205 180.0,34.641 170.0,51.9615 150.0,51.9615 140.0,34.641" fill-opacity="0.39" /> <polygon points="510.0,51.9615 530.0,51.9615 540.0,69.282 530.0,86.6025 510.0,86.6025 500.0,69.282" fill-opacity="0.19" /> <polygon points="510.0,190.5256 530.0,190.5256 540.0,207.8461 530.0,225.1666 510.0,225.1666 500.0,207.8461" fill-opacity="0.66" /> <polygon points="360.0,173.2051 380.0,173.2051 390.0,190.5256 380.0,207.8461 360.0,207.8461 350.0,190.5256" fill-opacity="0.0" /> <polygon points="240.0,173.2051 260.0,173.2051 270.0,190.5256 260.0,207.8461 240.0,207.8461 230.0,190.5256" fill-opacity="0.6" /> <polygon points="300.0,69.282 320.0,69.282 330.0,86.6025 320.0,103.923 300.0,103.923 290.0,86.6025" fill-opacity="0.59" /> <polygon points="30.0,259.8076 50.0,259.8076 60.0,277.1281 50.0,294.4486 30.0,294.4486 20.0,277.1281" fill-opacity="0.38" /> <polygon points="30.0,17.3205 50.0,17.3205 60.0,34.641 50.0,51.9615 30.0,51.9615 20.0,34.641" fill-opacity="0.16" /> <polygon points="390.0,121.2436 410.0,121.2436 420.0,138.5641 410.0,155.8846 390.0,155.8846 380.0,138.5641" fill-opacity="0.71" /> <polygon points="450.0,51.9615 470.0,51.9615 480.0,69.282 470.0,86.6025 450.0,86.6025 440.0,69.282" fill-opacity="0.68" /> <polygon points="180.0,277.1281 200.0,277.1281 210.0,294.4486 200.0,311.7691 180.0,311.7691 170.0,294.4486" fill-opacity="0.39" /></svg>